<?xml version="1.0" encoding="UTF-8"?>
<svg id="logo" xmlns="http://www.w3.org/2000/svg" version="1.1" viewBox="0 0 2891.34 1133.86">
  <!-- Generator: Adobe Illustrator 30.2.1, SVG Export Plug-In . SVG Version: 2.1.1 Build 1)  -->
  <defs>
    <style>
      .st0 {
        fill: #fff;
      }
    </style>
  </defs>
  <g>
    <g>
      <path class="st0" d="M619.41,200.1h112.67v275.31h-112.67V200.1Z"/>
      <circle class="st0" cx="675.74" cy="115.29" r="56.47"/>
    </g>
    <g>
      <polygon class="st0" points="2606.09 63.47 2548.38 63.47 2321.12 475.4 2447.53 475.4 2577.23 240.31 2706.93 475.4 2833.35 475.4 2606.09 63.47"/>
      <polygon class="st0" points="1493.93 63.47 1266.68 475.4 1393.09 475.4 1522.79 240.31 1652.49 475.4 1778.91 475.4 1551.64 63.47 1493.93 63.47"/>
      <polygon class="st0" points="1120.81 200.1 931.83 200.1 931.83 63.48 819.17 63.48 819.17 475.4 931.83 475.4 931.83 312.77 1120.81 312.77 1120.81 475.4 1233.48 475.4 1233.48 63.48 1120.81 63.48 1120.81 200.1"/>
      <polygon class="st0" points="2047.8 229.88 1930.75 63.47 1809.05 63.47 1809.05 475.39 1918.31 475.39 1918.31 225.46 2046.41 397.09 2175.21 224.25 2175.21 475.39 2286.55 475.39 2286.55 63.47 2164.7 63.47 2047.8 229.88"/>
    </g>
    <polygon class="st0" points="424.15 475.4 424.15 224.26 295.35 397.1 167.25 225.47 167.25 475.4 57.99 475.4 57.99 63.48 179.69 63.48 296.75 229.89 413.65 63.48 535.49 63.48 535.49 475.4 424.15 475.4"/>
  </g>
  <g>
    <polygon class="st0" points="1981.02 1072.27 1981.02 899.1 1792.76 573.84 1941.66 573.84 1942.3 574.94 2047.84 764.1 2154.06 573.84 2302.89 573.84 2301.04 577.01 2114.66 899.1 2114.66 1072.27 1981.02 1072.27"/>
    <path class="st0" d="M1064.98,1074.55l-152.33-263.32h115.66l.3-.05c32.19-4.71,55.55-33.1,55.55-67.48,0-38.16-28.6-69.2-63.75-69.2h-163.33v398.17h-129.99v-510.1h129.99l4.23.39h159.09c96.65,0,175.28,81.08,175.28,180.74,0,63.54-32.05,121.3-85.73,154.51l-3.49,2.16,100.76,174.18h-142.24Z"/>
    <polygon class="st0" points="2709.98 1075.03 2540.52 781.52 2371.06 1075.03 2218.05 1075.03 2505.81 576.61 2575.23 576.61 2862.99 1075.03 2709.98 1075.03"/>
    <polygon class="st0" points="520.27 1075.03 350.81 781.52 181.35 1075.03 28.35 1075.03 316.1 576.61 385.52 576.61 673.29 1075.03 520.27 1075.03"/>
  </g>
  <path class="st0" d="M1591.99,576.08h-69.43l-190.18,329.39c50.15-34.69,108.45-58.42,171.47-67.67l53.42-92.53,86.93,150.58-9.84-2.61c-29.31-7.77-56.59-11.55-83.4-11.55-128.19,0-243.45,73.72-302.35,192.87h152.04c40.2-48.63,97.77-76.48,158.27-76.48s118.1,27.85,158.29,76.48h162.55l-287.79-498.47Z"/>
</svg>